<svg width="781" height="845" viewBox="0 0 781 845" fill="none" xmlns="http://www.w3.org/2000/svg">
<g opacity="0.07">
<path d="M280.295 556.631C404.279 556.631 505.16 455.094 505.16 330.304C505.16 205.513 404.279 103.977 280.295 103.977C156.31 103.977 55.4293 205.513 55.4293 330.304C55.4293 455.094 156.31 556.631 280.295 556.631ZM280.295 116.656C397.351 116.656 492.563 212.487 492.563 330.304C492.563 448.121 397.351 543.951 280.295 543.951C163.239 543.951 68.0268 448.121 68.0268 330.304C68.0268 212.487 163.239 116.656 280.295 116.656Z" fill="white"/>
<path d="M499.904 844.999C654.615 844.999 780.496 717.671 780.496 561.182C780.496 404.693 654.615 277.365 499.904 277.365C345.194 277.365 219.312 404.693 219.312 561.182C219.312 717.671 345.194 844.999 499.904 844.999ZM499.904 293.265C645.969 293.265 764.777 413.438 764.777 561.182C764.777 708.926 645.969 829.099 499.904 829.099C353.839 829.099 235.032 708.926 235.032 561.182C235.032 413.438 353.839 293.265 499.904 293.265Z" fill="white"/>
<path d="M166.917 336.004C258.954 336.004 333.834 260.638 333.834 168.002C333.834 75.3663 258.954 0 166.917 0C74.8797 0 0.000105739 75.3663 0.000105739 168.002C0.000105739 260.638 74.8797 336.004 166.917 336.004ZM166.917 12.6794C252.001 12.6794 321.236 82.3653 321.236 168.002C321.236 253.639 252.001 323.324 166.917 323.324C81.8335 323.324 12.5976 253.639 12.5976 168.002C12.5976 82.3653 81.8335 12.6794 166.917 12.6794Z" fill="white"/>
</g>
</svg>
