<svg width="84" height="84" viewBox="0 0 84 84" fill="none" xmlns="http://www.w3.org/2000/svg">
<circle cx="42" cy="42" r="42" fill="url(#paint0_linear_3810_1307)"/>
<path fill-rule="evenodd" clip-rule="evenodd" d="M47.7551 22.2246L31.9266 28.8072C29.0396 39.3927 24.6896 49.2913 19 58.5761L21.5857 60.9303L40.2295 42.4632C39.987 42.04 39.851 41.5472 39.851 41.0232C39.851 39.4019 41.1723 38.0901 42.7932 38.0901C44.4141 38.0901 45.7354 39.4074 45.7354 41.0232C45.7354 42.6391 44.4196 43.9564 42.7932 43.9564H42.7895C42.3742 43.9564 41.9625 43.8702 41.584 43.6962L22.7416 62.319L24.6694 64.7061C34.1687 59.3089 44.2303 54.9541 55.0325 51.9697L61.4021 36.2398L47.7551 22.2246Z" stroke="white" stroke-miterlimit="10"/>
<path d="M54.8264 16C53.5713 17.2495 52.3142 18.4989 51.0591 19.7465L49.8535 20.9172L63.0724 34.4231L64.2779 33.2524C65.546 31.9608 66.8158 30.6692 68.0839 29.3776C63.6641 24.9184 59.2444 20.4592 54.8264 16Z" stroke="white" stroke-miterlimit="10"/>
<defs>
<linearGradient id="paint0_linear_3810_1307" x1="42" y1="0" x2="42" y2="84" gradientUnits="userSpaceOnUse">
<stop stop-color="#3624A6"/>
<stop offset="1" stop-color="#150E40"/>
</linearGradient>
</defs>
</svg>
