<svg width="110" height="129" viewBox="0 0 110 129" fill="none" xmlns="http://www.w3.org/2000/svg">
<path d="M43.4537 86.2939C62.675 86.2939 78.3145 70.5527 78.3145 51.2065C78.3145 31.8603 62.675 16.1191 43.4537 16.1191C24.2324 16.1191 8.59293 31.8603 8.59293 51.2065C8.59293 70.5527 24.2324 86.2939 43.4537 86.2939ZM43.4537 18.0848C61.6008 18.0848 76.3615 32.9414 76.3615 51.2065C76.3615 69.4716 61.6008 84.3282 43.4537 84.3282C25.3066 84.3282 10.5459 69.4716 10.5459 51.2065C10.5459 32.9414 25.3066 18.0848 43.4537 18.0848Z" fill="white"/>
<path d="M25.8769 52.0905C40.1454 52.0905 51.7539 40.4065 51.7539 26.0452C51.7539 11.684 40.1454 0 25.8769 0C11.6084 0 -0.00016278 11.684 -0.00016278 26.0452C-0.00016278 40.4065 11.6084 52.0905 25.8769 52.0905ZM25.8769 1.96568C39.0673 1.96568 49.8009 12.769 49.8009 26.0452C49.8009 39.3214 39.0673 50.1248 25.8769 50.1248C12.6864 50.1248 1.95282 39.3214 1.95282 26.0452C1.95282 12.769 12.6864 1.96568 25.8769 1.96568Z" fill="white"/>
<circle cx="68" cy="87" r="42" fill="url(#paint0_linear_3818_1331)"/>
<mask id="path-4-outside-1_3818_1331" maskUnits="userSpaceOnUse" x="32" y="68" width="72" height="39" fill="black">
<rect fill="white" x="32" y="68" width="72" height="39"/>
<path d="M65.4597 82.9827C63.9592 89.1153 59.0736 94.3524 52.992 96.3554C50.6529 97.1275 48.5389 97.2643 46.7162 96.7745C45.4981 99.7173 44.3507 102.682 43.2562 105.665C43.1723 105.876 42.9781 106 42.7663 106C42.7089 106 42.6383 105.987 42.5853 105.974C42.3205 105.876 42.1793 105.568 42.2764 105.303C43.3533 102.334 44.5184 99.382 45.7365 96.4392C43.6622 95.5436 41.76 93.3861 41.9807 90.8095C42.1087 89.4506 42.8766 87.5314 43.746 86.4417C46.1425 83.4018 49.4481 81.3326 53.3009 80.4634C53.4951 80.4237 53.707 80.4899 53.835 80.6443C53.9629 80.812 53.9762 81.0238 53.8923 81.2047C51.4694 85.9652 49.2142 90.8537 47.1267 95.7951C48.7243 96.1877 50.6132 96.0333 52.661 95.3627C58.4028 93.4876 63.0412 88.5285 64.4402 82.7444C65.2125 79.5943 64.8198 76.4838 63.3634 74.2425C62.0305 72.1689 59.665 70.713 56.8625 70.2232C54.0909 69.7335 51.2752 70.3071 48.892 70.938C39.827 73.3204 33.7233 82.2415 34.0455 83.9357C34.1029 84.2136 33.9175 84.496 33.6263 84.5401C33.3482 84.5975 33.079 84.4122 33.026 84.1342C32.5185 81.4297 39.4916 72.3277 48.6228 69.932C50.9751 69.3144 54.0424 68.6702 57.039 69.1908C60.1196 69.7379 62.7411 71.3748 64.2372 73.6734C65.8481 76.1662 66.2806 79.5546 65.4553 82.9871L65.4597 82.9827ZM52.4359 81.765C49.298 82.7047 46.5794 84.5225 44.5625 87.0858C43.8343 88.0079 43.1326 89.7595 43.0223 90.8934C42.8678 92.7155 44.183 94.648 46.1337 95.473C48.08 90.8404 50.1939 86.2431 52.4359 81.765Z"/>
<path d="M93.8243 89.9845C93.1534 89.508 92.7165 88.8374 92.5223 87.9682C92.3281 87.0858 92.2708 86.1637 92.3546 85.1534C92.4385 84.1607 92.5664 83.2342 92.7033 82.3959C92.7739 81.99 92.8312 81.6238 92.871 81.2885C92.2708 81.8223 91.4719 82.7312 90.4878 84.0195C89.4948 85.3078 88.6518 86.4284 87.9545 87.3947C87.0454 88.6565 86.401 89.508 86.0082 89.958L85.6993 90.3066C84.8166 91.3699 83.8766 92.2787 82.8836 93.0773C82.5614 93.3155 82.1951 93.5273 81.7758 93.7214C81.3566 93.9023 80.9196 93.9597 80.4739 93.8759C79.9575 93.7788 79.5515 93.4435 79.2426 92.8964C79.2293 92.8832 79.2293 92.8699 79.2161 92.8567C78.8674 92.0184 78.6997 91.0787 78.713 90.0683C78.6556 88.8065 78.6865 87.5491 78.7836 86.274C78.9116 84.7916 79.0616 83.3312 79.2602 81.9062C79.3706 81.1076 79.4721 80.2958 79.5692 79.484C79.7369 78.0677 79.8472 76.6427 79.9046 75.1999C79.9619 74.2602 79.931 73.3381 79.8207 72.4116C79.7766 72.3145 79.7501 72.2174 79.7236 72.1468C79.6971 72.0895 79.6662 72.0365 79.6398 72.0057C79.6133 71.966 79.5956 71.9483 79.5824 71.9351C79.5691 71.9218 79.5559 71.9218 79.5559 71.9218C79.4985 71.8954 79.375 71.9483 79.1896 72.0895C78.9954 72.2307 78.6997 72.5395 78.2937 72.9851L78.2231 73.069C77.2698 74.1764 76.4004 75.3808 75.5883 76.6515C74.7763 77.9265 74.0745 79.131 73.4434 80.2649C71.6516 83.4856 70.0805 86.6799 68.7388 89.8433C67.0308 93.8759 65.9099 96.8451 65.3891 98.7202C64.8683 100.595 64.6741 101.787 64.7889 102.303C64.8021 102.444 64.7624 102.567 64.6785 102.682C64.5947 102.797 64.4843 102.85 64.3299 102.876H64.2725C64.1445 102.876 64.0342 102.832 63.9371 102.748C63.84 102.665 63.7826 102.554 63.7561 102.413C63.5311 100.578 64.8771 96.2363 67.7899 89.433C69.1492 86.2387 70.7336 83.018 72.5519 79.7575C73.183 78.6104 73.9112 77.3751 74.7365 76.0603C75.5618 74.7587 76.4577 73.5278 77.4552 72.3895L77.5258 72.3057C77.8215 71.9395 78.1569 71.5909 78.5497 71.2689C78.9425 70.96 79.3485 70.8365 79.7942 70.9027C80.2841 71.013 80.6195 71.4365 80.8314 72.1645C80.8314 72.191 80.8446 72.2086 80.8446 72.2351C80.9726 73.2278 80.9991 74.2249 80.9417 75.2441C80.8711 76.7 80.7608 78.156 80.593 79.5987C80.5092 80.4105 80.4121 81.2223 80.2974 82.0341C80.1032 83.4504 79.931 84.8754 79.8207 86.3314C79.7104 87.5623 79.6927 88.8109 79.7501 90.0419C79.7369 90.9243 79.8781 91.7096 80.1694 92.4067C80.3106 92.6582 80.4915 92.8126 80.6857 92.8567C81.052 92.9405 81.5816 92.7288 82.2701 92.2258C83.1793 91.4978 84.0752 90.6286 84.9181 89.6051L85.2403 89.2565C85.6198 88.8065 86.251 87.9815 87.116 86.777C88.9519 84.2577 90.3245 82.493 91.2336 81.4561C92.156 80.4193 92.8312 79.9428 93.2638 80.0399C93.5595 80.0796 93.7536 80.2517 93.864 80.5296C93.9213 80.684 93.9346 80.9223 93.9081 81.2311C93.8816 81.54 93.8243 81.9723 93.7272 82.5327C93.5992 83.2474 93.5021 84.0592 93.4182 84.9416C93.3344 85.824 93.3476 86.649 93.4756 87.4211C93.5859 88.1932 93.8949 88.7536 94.398 89.1021C94.6628 89.3139 95.0997 89.4109 95.6867 89.3977C96.2604 89.3977 97.0592 89.1859 98.0522 88.7933C99.0629 88.4006 100.321 87.7167 101.848 86.7329C102.351 86.3976 102.704 86.3667 102.911 86.649C103.123 86.9138 102.955 87.2358 102.408 87.602C98.3038 90.2625 95.4484 91.0478 93.8198 89.9669L93.8243 89.9845Z"/>
</mask>
<path d="M65.4597 82.9827C63.9592 89.1153 59.0736 94.3524 52.992 96.3554C50.6529 97.1275 48.5389 97.2643 46.7162 96.7745C45.4981 99.7173 44.3507 102.682 43.2562 105.665C43.1723 105.876 42.9781 106 42.7663 106C42.7089 106 42.6383 105.987 42.5853 105.974C42.3205 105.876 42.1793 105.568 42.2764 105.303C43.3533 102.334 44.5184 99.382 45.7365 96.4392C43.6622 95.5436 41.76 93.3861 41.9807 90.8095C42.1087 89.4506 42.8766 87.5314 43.746 86.4417C46.1425 83.4018 49.4481 81.3326 53.3009 80.4634C53.4951 80.4237 53.707 80.4899 53.835 80.6443C53.9629 80.812 53.9762 81.0238 53.8923 81.2047C51.4694 85.9652 49.2142 90.8537 47.1267 95.7951C48.7243 96.1877 50.6132 96.0333 52.661 95.3627C58.4028 93.4876 63.0412 88.5285 64.4402 82.7444C65.2125 79.5943 64.8198 76.4838 63.3634 74.2425C62.0305 72.1689 59.665 70.713 56.8625 70.2232C54.0909 69.7335 51.2752 70.3071 48.892 70.938C39.827 73.3204 33.7233 82.2415 34.0455 83.9357C34.1029 84.2136 33.9175 84.496 33.6263 84.5401C33.3482 84.5975 33.079 84.4122 33.026 84.1342C32.5185 81.4297 39.4916 72.3277 48.6228 69.932C50.9751 69.3144 54.0424 68.6702 57.039 69.1908C60.1196 69.7379 62.7411 71.3748 64.2372 73.6734C65.8481 76.1662 66.2806 79.5546 65.4553 82.9871L65.4597 82.9827ZM52.4359 81.765C49.298 82.7047 46.5794 84.5225 44.5625 87.0858C43.8343 88.0079 43.1326 89.7595 43.0223 90.8934C42.8678 92.7155 44.183 94.648 46.1337 95.473C48.08 90.8404 50.1939 86.2431 52.4359 81.765Z" fill="white"/>
<path d="M93.8243 89.9845C93.1534 89.508 92.7165 88.8374 92.5223 87.9682C92.3281 87.0858 92.2708 86.1637 92.3546 85.1534C92.4385 84.1607 92.5664 83.2342 92.7033 82.3959C92.7739 81.99 92.8312 81.6238 92.871 81.2885C92.2708 81.8223 91.4719 82.7312 90.4878 84.0195C89.4948 85.3078 88.6518 86.4284 87.9545 87.3947C87.0454 88.6565 86.401 89.508 86.0082 89.958L85.6993 90.3066C84.8166 91.3699 83.8766 92.2787 82.8836 93.0773C82.5614 93.3155 82.1951 93.5273 81.7758 93.7214C81.3566 93.9023 80.9196 93.9597 80.4739 93.8759C79.9575 93.7788 79.5515 93.4435 79.2426 92.8964C79.2293 92.8832 79.2293 92.8699 79.2161 92.8567C78.8674 92.0184 78.6997 91.0787 78.713 90.0683C78.6556 88.8065 78.6865 87.5491 78.7836 86.274C78.9116 84.7916 79.0616 83.3312 79.2602 81.9062C79.3706 81.1076 79.4721 80.2958 79.5692 79.484C79.7369 78.0677 79.8472 76.6427 79.9046 75.1999C79.9619 74.2602 79.931 73.3381 79.8207 72.4116C79.7766 72.3145 79.7501 72.2174 79.7236 72.1468C79.6971 72.0895 79.6662 72.0365 79.6398 72.0057C79.6133 71.966 79.5956 71.9483 79.5824 71.9351C79.5691 71.9218 79.5559 71.9218 79.5559 71.9218C79.4985 71.8954 79.375 71.9483 79.1896 72.0895C78.9954 72.2307 78.6997 72.5395 78.2937 72.9851L78.2231 73.069C77.2698 74.1764 76.4004 75.3808 75.5883 76.6515C74.7763 77.9265 74.0745 79.131 73.4434 80.2649C71.6516 83.4856 70.0805 86.6799 68.7388 89.8433C67.0308 93.8759 65.9099 96.8451 65.3891 98.7202C64.8683 100.595 64.6741 101.787 64.7889 102.303C64.8021 102.444 64.7624 102.567 64.6785 102.682C64.5947 102.797 64.4843 102.85 64.3299 102.876H64.2725C64.1445 102.876 64.0342 102.832 63.9371 102.748C63.84 102.665 63.7826 102.554 63.7561 102.413C63.5311 100.578 64.8771 96.2363 67.7899 89.433C69.1492 86.2387 70.7336 83.018 72.5519 79.7575C73.183 78.6104 73.9112 77.3751 74.7365 76.0603C75.5618 74.7587 76.4577 73.5278 77.4552 72.3895L77.5258 72.3057C77.8215 71.9395 78.1569 71.5909 78.5497 71.2689C78.9425 70.96 79.3485 70.8365 79.7942 70.9027C80.2841 71.013 80.6195 71.4365 80.8314 72.1645C80.8314 72.191 80.8446 72.2086 80.8446 72.2351C80.9726 73.2278 80.9991 74.2249 80.9417 75.2441C80.8711 76.7 80.7608 78.156 80.593 79.5987C80.5092 80.4105 80.4121 81.2223 80.2974 82.0341C80.1032 83.4504 79.931 84.8754 79.8207 86.3314C79.7104 87.5623 79.6927 88.8109 79.7501 90.0419C79.7369 90.9243 79.8781 91.7096 80.1694 92.4067C80.3106 92.6582 80.4915 92.8126 80.6857 92.8567C81.052 92.9405 81.5816 92.7288 82.2701 92.2258C83.1793 91.4978 84.0752 90.6286 84.9181 89.6051L85.2403 89.2565C85.6198 88.8065 86.251 87.9815 87.116 86.777C88.9519 84.2577 90.3245 82.493 91.2336 81.4561C92.156 80.4193 92.8312 79.9428 93.2638 80.0399C93.5595 80.0796 93.7536 80.2517 93.864 80.5296C93.9213 80.684 93.9346 80.9223 93.9081 81.2311C93.8816 81.54 93.8243 81.9723 93.7272 82.5327C93.5992 83.2474 93.5021 84.0592 93.4182 84.9416C93.3344 85.824 93.3476 86.649 93.4756 87.4211C93.5859 88.1932 93.8949 88.7536 94.398 89.1021C94.6628 89.3139 95.0997 89.4109 95.6867 89.3977C96.2604 89.3977 97.0592 89.1859 98.0522 88.7933C99.0629 88.4006 100.321 87.7167 101.848 86.7329C102.351 86.3976 102.704 86.3667 102.911 86.649C103.123 86.9138 102.955 87.2358 102.408 87.602C98.3038 90.2625 95.4484 91.0478 93.8198 89.9669L93.8243 89.9845Z" fill="white"/>
<path d="M65.4597 82.9827C63.9592 89.1153 59.0736 94.3524 52.992 96.3554C50.6529 97.1275 48.5389 97.2643 46.7162 96.7745C45.4981 99.7173 44.3507 102.682 43.2562 105.665C43.1723 105.876 42.9781 106 42.7663 106C42.7089 106 42.6383 105.987 42.5853 105.974C42.3205 105.876 42.1793 105.568 42.2764 105.303C43.3533 102.334 44.5184 99.382 45.7365 96.4392C43.6622 95.5436 41.76 93.3861 41.9807 90.8095C42.1087 89.4506 42.8766 87.5314 43.746 86.4417C46.1425 83.4018 49.4481 81.3326 53.3009 80.4634C53.4951 80.4237 53.707 80.4899 53.835 80.6443C53.9629 80.812 53.9762 81.0238 53.8923 81.2047C51.4694 85.9652 49.2142 90.8537 47.1267 95.7951C48.7243 96.1877 50.6132 96.0333 52.661 95.3627C58.4028 93.4876 63.0412 88.5285 64.4402 82.7444C65.2125 79.5943 64.8198 76.4838 63.3634 74.2425C62.0305 72.1689 59.665 70.713 56.8625 70.2232C54.0909 69.7335 51.2752 70.3071 48.892 70.938C39.827 73.3204 33.7233 82.2415 34.0455 83.9357C34.1029 84.2136 33.9175 84.496 33.6263 84.5401C33.3482 84.5975 33.079 84.4122 33.026 84.1342C32.5185 81.4297 39.4916 72.3277 48.6228 69.932C50.9751 69.3144 54.0424 68.6702 57.039 69.1908C60.1196 69.7379 62.7411 71.3748 64.2372 73.6734C65.8481 76.1662 66.2806 79.5546 65.4553 82.9871L65.4597 82.9827ZM52.4359 81.765C49.298 82.7047 46.5794 84.5225 44.5625 87.0858C43.8343 88.0079 43.1326 89.7595 43.0223 90.8934C42.8678 92.7155 44.183 94.648 46.1337 95.473C48.08 90.8404 50.1939 86.2431 52.4359 81.765Z" stroke="white" mask="url(#path-4-outside-1_3818_1331)"/>
<path d="M93.8243 89.9845C93.1534 89.508 92.7165 88.8374 92.5223 87.9682C92.3281 87.0858 92.2708 86.1637 92.3546 85.1534C92.4385 84.1607 92.5664 83.2342 92.7033 82.3959C92.7739 81.99 92.8312 81.6238 92.871 81.2885C92.2708 81.8223 91.4719 82.7312 90.4878 84.0195C89.4948 85.3078 88.6518 86.4284 87.9545 87.3947C87.0454 88.6565 86.401 89.508 86.0082 89.958L85.6993 90.3066C84.8166 91.3699 83.8766 92.2787 82.8836 93.0773C82.5614 93.3155 82.1951 93.5273 81.7758 93.7214C81.3566 93.9023 80.9196 93.9597 80.4739 93.8759C79.9575 93.7788 79.5515 93.4435 79.2426 92.8964C79.2293 92.8832 79.2293 92.8699 79.2161 92.8567C78.8674 92.0184 78.6997 91.0787 78.713 90.0683C78.6556 88.8065 78.6865 87.5491 78.7836 86.274C78.9116 84.7916 79.0616 83.3312 79.2602 81.9062C79.3706 81.1076 79.4721 80.2958 79.5692 79.484C79.7369 78.0677 79.8472 76.6427 79.9046 75.1999C79.9619 74.2602 79.931 73.3381 79.8207 72.4116C79.7766 72.3145 79.7501 72.2174 79.7236 72.1468C79.6971 72.0895 79.6662 72.0365 79.6398 72.0057C79.6133 71.966 79.5956 71.9483 79.5824 71.9351C79.5691 71.9218 79.5559 71.9218 79.5559 71.9218C79.4985 71.8954 79.375 71.9483 79.1896 72.0895C78.9954 72.2307 78.6997 72.5395 78.2937 72.9851L78.2231 73.069C77.2698 74.1764 76.4004 75.3808 75.5883 76.6515C74.7763 77.9265 74.0745 79.131 73.4434 80.2649C71.6516 83.4856 70.0805 86.6799 68.7388 89.8433C67.0308 93.8759 65.9099 96.8451 65.3891 98.7202C64.8683 100.595 64.6741 101.787 64.7889 102.303C64.8021 102.444 64.7624 102.567 64.6785 102.682C64.5947 102.797 64.4843 102.85 64.3299 102.876H64.2725C64.1445 102.876 64.0342 102.832 63.9371 102.748C63.84 102.665 63.7826 102.554 63.7561 102.413C63.5311 100.578 64.8771 96.2363 67.7899 89.433C69.1492 86.2387 70.7336 83.018 72.5519 79.7575C73.183 78.6104 73.9112 77.3751 74.7365 76.0603C75.5618 74.7587 76.4577 73.5278 77.4552 72.3895L77.5258 72.3057C77.8215 71.9395 78.1569 71.5909 78.5497 71.2689C78.9425 70.96 79.3485 70.8365 79.7942 70.9027C80.2841 71.013 80.6195 71.4365 80.8314 72.1645C80.8314 72.191 80.8446 72.2086 80.8446 72.2351C80.9726 73.2278 80.9991 74.2249 80.9417 75.2441C80.8711 76.7 80.7608 78.156 80.593 79.5987C80.5092 80.4105 80.4121 81.2223 80.2974 82.0341C80.1032 83.4504 79.931 84.8754 79.8207 86.3314C79.7104 87.5623 79.6927 88.8109 79.7501 90.0419C79.7369 90.9243 79.8781 91.7096 80.1694 92.4067C80.3106 92.6582 80.4915 92.8126 80.6857 92.8567C81.052 92.9405 81.5816 92.7288 82.2701 92.2258C83.1793 91.4978 84.0752 90.6286 84.9181 89.6051L85.2403 89.2565C85.6198 88.8065 86.251 87.9815 87.116 86.777C88.9519 84.2577 90.3245 82.493 91.2336 81.4561C92.156 80.4193 92.8312 79.9428 93.2638 80.0399C93.5595 80.0796 93.7536 80.2517 93.864 80.5296C93.9213 80.684 93.9346 80.9223 93.9081 81.2311C93.8816 81.54 93.8243 81.9723 93.7272 82.5327C93.5992 83.2474 93.5021 84.0592 93.4182 84.9416C93.3344 85.824 93.3476 86.649 93.4756 87.4211C93.5859 88.1932 93.8949 88.7536 94.398 89.1021C94.6628 89.3139 95.0997 89.4109 95.6867 89.3977C96.2604 89.3977 97.0592 89.1859 98.0522 88.7933C99.0629 88.4006 100.321 87.7167 101.848 86.7329C102.351 86.3976 102.704 86.3667 102.911 86.649C103.123 86.9138 102.955 87.2358 102.408 87.602C98.3038 90.2625 95.4484 91.0478 93.8198 89.9669L93.8243 89.9845Z" stroke="white" mask="url(#path-4-outside-1_3818_1331)"/>
<defs>
<linearGradient id="paint0_linear_3818_1331" x1="68" y1="45" x2="68" y2="129" gradientUnits="userSpaceOnUse">
<stop stop-color="#3624A6"/>
<stop offset="1" stop-color="#150E40"/>
</linearGradient>
</defs>
</svg>
