<svg width="781" height="845" viewBox="0 0 781 845" fill="none" xmlns="http://www.w3.org/2000/svg">
<g opacity="0.07">
<path d="M500.201 288.369C376.217 288.369 275.336 389.906 275.336 514.696C275.336 639.487 376.217 741.023 500.201 741.023C624.186 741.023 725.067 639.487 725.067 514.696C725.067 389.906 624.186 288.369 500.201 288.369ZM500.201 728.344C383.145 728.344 287.933 632.513 287.933 514.696C287.933 396.879 383.145 301.049 500.201 301.049C617.257 301.049 712.469 396.879 712.469 514.696C712.469 632.513 617.257 728.344 500.201 728.344Z" fill="white"/>
<path d="M280.592 0.00062561C125.881 0.00062561 0 127.329 0 283.818C0 440.307 125.881 567.635 280.592 567.635C435.303 567.635 561.184 440.307 561.184 283.818C561.184 127.329 435.303 0.00062561 280.592 0.00062561ZM280.592 551.735C134.527 551.735 15.7194 431.562 15.7194 283.818C15.7194 136.074 134.527 15.9007 280.592 15.9007C426.657 15.9007 545.464 136.074 545.464 283.818C545.464 431.562 426.657 551.735 280.592 551.735Z" fill="white"/>
<path d="M613.579 508.996C521.542 508.996 446.662 584.362 446.662 676.998C446.662 769.634 521.542 845 613.579 845C705.616 845 780.496 769.634 780.496 676.998C780.496 584.362 705.616 508.996 613.579 508.996ZM613.579 832.321C528.495 832.321 459.26 762.635 459.26 676.998C459.26 591.361 528.495 521.676 613.579 521.676C698.663 521.676 767.898 591.361 767.898 676.998C767.898 762.635 698.663 832.321 613.579 832.321Z" fill="white"/>
</g>
</svg>
