<svg width="276" height="299" viewBox="0 0 276 299" fill="none" xmlns="http://www.w3.org/2000/svg">
<g opacity="0.07">
<path d="M99.1177 196.835C142.961 196.835 178.635 160.93 178.635 116.802C178.635 72.673 142.961 36.7676 99.1177 36.7676C55.2742 36.7676 19.6007 72.673 19.6007 116.802C19.6007 160.93 55.2742 196.835 99.1177 196.835ZM99.1177 41.2513C140.511 41.2513 174.18 75.139 174.18 116.802C174.18 158.464 140.511 192.352 99.1177 192.352C57.7243 192.352 24.0554 158.464 24.0554 116.802C24.0554 75.139 57.7243 41.2513 99.1177 41.2513Z" fill="white"/>
<path d="M176.777 298.809C231.486 298.809 276 253.783 276 198.446C276 143.108 231.486 98.082 176.777 98.082C122.068 98.082 77.5539 143.108 77.5539 198.446C77.5539 253.783 122.068 298.809 176.777 298.809ZM176.777 103.705C228.429 103.705 270.441 146.2 270.441 198.446C270.441 250.691 228.429 293.187 176.777 293.187C125.125 293.187 83.1126 250.691 83.1126 198.446C83.1126 146.2 125.125 103.705 176.777 103.705Z" fill="white"/>
<path d="M59.0255 118.818C91.5718 118.818 118.051 92.1668 118.051 59.4089C118.051 26.6511 91.5718 0 59.0255 0C26.4792 0 0.000267029 26.6511 0.000267029 59.4089C0.000267029 92.1668 26.4792 118.818 59.0255 118.818ZM59.0255 4.48369C89.1128 4.48369 113.596 29.1261 113.596 59.4089C113.596 89.6918 89.1128 114.334 59.0255 114.334C28.9382 114.334 4.455 89.6918 4.455 59.4089C4.455 29.1261 28.9382 4.48369 59.0255 4.48369Z" fill="white"/>
</g>
<circle cx="59" cy="56" r="42" fill="url(#paint0_linear_3874_1192)"/>
<defs>
<linearGradient id="paint0_linear_3874_1192" x1="59" y1="14" x2="59" y2="98" gradientUnits="userSpaceOnUse">
<stop stop-color="#3624A6"/>
<stop offset="1" stop-color="#150E40"/>
</linearGradient>
</defs>
</svg>
